<?xml version="1.0" encoding="utf-8"?>
<!-- Generator: Adobe Illustrator 18.0.0, SVG Export Plug-In . SVG Version: 6.00 Build 0)  -->
<!DOCTYPE svg PUBLIC "-//W3C//DTD SVG 1.1//EN" "http://www.w3.org/Graphics/SVG/1.1/DTD/svg11.dtd">
<svg version="1.1" id="Layer_1" xmlns="http://www.w3.org/2000/svg" xmlns:xlink="http://www.w3.org/1999/xlink" x="0px" y="0px"
	 viewBox="428.3 74 277.2 277.2" enable-background="new 428.3 74 277.2 277.2" xml:space="preserve">
<path fill="#666666" d="M496.3,212.6c0-39.1,31.5-70.6,70.6-70.6s70.6,31.5,70.6,70.6s-31.5,70.6-70.6,70.6
	C527.8,283.2,496.3,251.7,496.3,212.6L496.3,212.6z M640.1,74H493.8c-35.7,0-65.5,29.8-65.5,65.5v146.3c0,35.7,29.8,65.5,65.5,65.5
	h146.3c35.7,0,65.5-29.8,65.5-65.5V139.5C705.5,103.7,675.8,74,640.1,74L640.1,74z M493.8,90.1h146.3c27.2,0,49.3,22.1,49.3,49.3
	v146.3c0,27.2-22.1,49.3-49.3,49.3H493.8c-27.2,0-49.3-22.1-49.3-49.3V139.5C444.5,112.3,466.6,90.1,493.8,90.1L493.8,90.1z
	 M654.5,111.4c-7.7,0-14.5,6.8-14.5,14.5s6.8,14.5,14.5,14.5s14.5-6.8,14.5-14.5C669,117.4,662.2,111.4,654.5,111.4L654.5,111.4z
	 M656.2,212.6c0-49.3-40-89.3-89.3-89.3c-49.3,0-89.3,40-89.3,89.3s40,89.3,89.3,89.3C616.3,301.9,656.2,261.9,656.2,212.6
	L656.2,212.6z"/>
</svg>
