<?xml version="1.0" encoding="utf-8"?>
<!-- Generator: Adobe Illustrator 18.0.0, SVG Export Plug-In . SVG Version: 6.00 Build 0)  -->
<!DOCTYPE svg PUBLIC "-//W3C//DTD SVG 1.1//EN" "http://www.w3.org/Graphics/SVG/1.1/DTD/svg11.dtd">
<svg version="1.1" id="Layer_1" xmlns="http://www.w3.org/2000/svg" xmlns:xlink="http://www.w3.org/1999/xlink" x="0px" y="0px"
	 viewBox="470.8 34 191.3 356.3" enable-background="new 470.8 34 191.3 356.3" xml:space="preserve">
<g>
	<path fill="#666666" d="M600.9,390.3h-77.4V234.7h-52.7V159h52.7v-37.4c0-53.6,32.3-87.6,85-87.6c23,0,42.5,1.7,47.6,2.6l6,0.9v68
		h-39.1c-19.6,0-23,6.8-23,22.1V159h61.2l-9.4,75.7h-51V390.3z M538,375.9h48.5V220.3h52.7l6-45.9h-58.7v-45.9
		c0-17,4.3-36.6,37.4-36.6h24.7V51c-8.5-0.9-23.8-1.7-39.1-1.7c-44.2,0-70.6,27.2-70.6,73.1v51.9h-52.7v45.9h52.7v155.6H538z"/>
</g>
</svg>
