<?xml version="1.0" encoding="utf-8"?>
<!-- Generator: Adobe Illustrator 18.0.0, SVG Export Plug-In . SVG Version: 6.00 Build 0)  -->
<!DOCTYPE svg PUBLIC "-//W3C//DTD SVG 1.1//EN" "http://www.w3.org/Graphics/SVG/1.1/DTD/svg11.dtd">
<svg version="1.1" id="Layer_1" xmlns="http://www.w3.org/2000/svg" xmlns:xlink="http://www.w3.org/1999/xlink" x="0px" y="0px"
	 viewBox="353.3 -10.8 427.3 435" enable-background="new 353.3 -10.8 427.3 435" xml:space="preserve">
<g>
	<path fill="#666" d="M682.5,424.2h-1.3l-4.9-1.3c-6.2-1.3-14.7-2.4-23.3-6.2C540.6,370.3,455,297,397.7,201.6
		c-12.2-19.5-23.3-42.8-35.5-70.8c-11.1-26.9-12.2-53.7-1.3-77c11.1-24.4,33.1-41.5,62.4-51.3c16-4.9,28.2-4.9,40.4,0
		c29.3,11.1,84.4,85.5,85.5,116.1c1.1,30.6-22,46.4-31.8,52.6c-4.9,3.7-4.9,4.9-4.9,6.2c0,2.4,1.3,4.9,2.4,9.8
		c16,34.2,41.5,58.6,80.6,75.7l2.4,1.3c1.3,0,2.4,1.3,3.7,1.3c0,0,1.3-1.3,2.4-3.7c18.4-26.9,39.1-31.8,53.7-31.8
		c14.7,0,30.6,6.2,46.4,17.1l12.2,8.6c8.6,6.2,17.1,12.2,25.7,18.4l6.2,4.9c13.5,11.1,42.8,33.1,28.2,73.3
		C768,387.6,725.3,424.2,682.5,424.2z M444.2,23.3c-3.7,0-8.6,1.3-13.5,2.4c-23.3,7.3-39.1,20.8-47.7,39.1
		c-7.3,17.1-7.3,36.6,1.3,57.5c11.1,26.9,22,48.9,34.2,67.3c55,91.7,136.8,161.4,243.1,205.3c6.2,2.4,13.5,3.7,18.4,4.9h3.7
		c30.6,0,63.5-29.3,73.3-56.2c8.6-22-3.7-33.1-19.5-46.4l-7.3-4.9c-7.3-6.2-16-12.2-24.4-17.1l-12.2-8.6
		c-28.2-18.4-50.2-16-67.3,9.8c-2.4,3.7-9.8,14.7-22,14.7c-6.2,0-9.8-2.4-14.7-3.7l-2.4-2.4c-44-19.5-74.6-47.7-92.8-87.9
		c-3.7-7.3-4.9-13.5-4.9-18.4c-1.3-11.1,4.9-20.8,16-28.2c11.1-7.3,22-16,20.8-31.8c-1.3-20.8-50.2-86.8-69.7-94.1
		C451.6,23.3,447.8,23.3,444.2,23.3z"/>
	<path fill="#666" d="M603,84.5c58.6,12.2,78.2,34.2,87.9,90.4c0,2.4,1.3,4.9,1.3,7.3c1.3,7.3,2.4,12.2,12.2,11.1
		c4.9-1.3,7.3-3.7,7.3-7.3c1.3-3.7,0-8.6,0-11.1c0-55-47.7-103.9-105-111.2c-9.8-1.3-20.8-4.9-23.3,7.3S594.5,82.1,603,84.5z"/>
	<path fill="#666" d="M609.2,128.5c24.4,3.7,36.6,17.1,39.1,40.4c0,3.7,1.3,6.2,2.4,7.3c2.4,2.4,4.9,3.7,7.3,2.4
		c2.4,0,3.7-1.3,4.9-1.3c3.7-2.4,4.9-8.6,3.7-14.7c0-25.7-29.3-56.2-55-56.2c-6.2,0-12.2,1.3-14.7,7.3
		C594.5,124.7,601.9,127.2,609.2,128.5z"/>
	<path fill="#666" d="M759.5,196.9c0-2.4,0-4.9,0-7.3c1.3-87.9-77-169.9-167.4-172.3c-8.6,1.3-22-3.7-23.3,11.1
		c0,9.8,12.2,8.6,19.5,9.8c94.1,14.7,138.1,58.6,150.3,151.5c0,1.3,0,1.3,0,2.4c1.3,8.6-1.3,19.5,11.1,19.5
		C759.5,211.5,759.5,204.2,759.5,196.9z"/>
</g>
</svg>
