<?xml version="1.0" encoding="utf-8"?>
<!-- Generator: Adobe Illustrator 18.0.0, SVG Export Plug-In . SVG Version: 6.00 Build 0)  -->
<!DOCTYPE svg PUBLIC "-//W3C//DTD SVG 1.1//EN" "http://www.w3.org/Graphics/SVG/1.1/DTD/svg11.dtd">
<svg version="1.1" id="Layer_1" xmlns="http://www.w3.org/2000/svg" xmlns:xlink="http://www.w3.org/1999/xlink" x="0px" y="0px"
	 viewBox="410.3 76.5 313.1 273" enable-background="new 410.3 76.5 313.1 273" xml:space="preserve">
<path fill="#666666" d="M652.8,349.5L652.8,349.5c-4.3,0-8.5-0.9-12.8-2.6l-1.7-0.9l-61.2-46.8l-37.4,34c-1.7,0.9-5.1,3.4-10.2,3.4
	c-1.7,0-4.3,0-6-0.9l-6-2.6l9.4-81.6l2.6-2.6c0.9-0.9,49.3-45.1,85.9-78.2l-118.2,75.7l-69.7-23.8c-1.7-0.9-15.3-6-17-18.7
	c-1.7-11.1,8.5-17.9,17-21.3L690.2,79.9c0.9,0,7.7-3.4,15.3-3.4c11.1,0,17.9,6.8,17.9,17.9v1.7l-47.6,238.1
	C674.1,339.3,666.4,349.5,652.8,349.5z M647.7,330.8c1.7,0.9,3.4,0.9,5.1,0.9c4.3,0,6.8-3.4,7.7-5.1l46.8-234.7h-0.9
	c-3.4,0-7.7,1.7-9.4,2.6L433.4,198.1c-2.6,0.9-6,2.6-6,4.3c0,0.9,3.4,3.4,6,4.3l62.1,21.3l155.6-98.6c1.7-0.9,6.8-3.4,11.1-3.4
	c3.4,0,6,0.9,7.7,3.4c0.9,0.9,0.9,1.7,1.7,2.6l0.9,0.9l0.9,5.1c0.9,5.1-3.4,9.4-6,11.9c-4.3,4.3-105.4,96.1-123.3,111.4l-6,52.7
	l39.1-35.7L647.7,330.8z"/>
</svg>
