<?xml version="1.0" encoding="utf-8"?>
<!-- Generator: Adobe Illustrator 18.0.0, SVG Export Plug-In . SVG Version: 6.00 Build 0)  -->
<!DOCTYPE svg PUBLIC "-//W3C//DTD SVG 1.1//EN" "http://www.w3.org/Graphics/SVG/1.1/DTD/svg11.dtd">
<svg version="1.1" id="Layer_1" xmlns="http://www.w3.org/2000/svg" xmlns:xlink="http://www.w3.org/1999/xlink" x="0px" y="0px"
	 viewBox="414.7 61.2 303.6 303.6" enable-background="new 414.7 61.2 303.6 303.6" xml:space="preserve">
<g>
	<path fill="#666666" d="M414.7,364.8l31.5-92.7c-11.1-20.4-17-44.2-17-67.2c0-2.6,0-5.1,0-7.7c3.4-76.5,66.3-136.1,144.6-136.1
		c79.1,0,142.9,61.2,144.6,140.3v3.4c0,79.9-64.6,144.6-144.6,144.6c-22.1,0-43.4-5.1-62.9-14.5L414.7,364.8z M574.6,77.4
		c-68.9,0-125,52.7-127.6,119.9v0.9c0,1.7,0,3.4,0,6c0,22.1,6,43.4,16.2,62.1l1.7,3.4l-23,68l71.4-22.1l3.4,1.7
		c17.9,9.4,38.3,14.5,58.7,14.5c70.6,0,128.4-57,128.4-126.7v-3.4C700.4,131.8,644.3,77.4,574.6,77.4z"/>
	<path fill="#666666" d="M503.1,175.2c0,4.3,0.9,7.7,1.7,11.9c3.4,11.9,11.1,22.1,11.9,23.8c1.7,2.6,23.8,38.3,58.7,51.9
		c35.7,13.6,35.7,9.4,41.7,8.5c6-0.9,20.4-8.5,23.8-16.2c2.6-7.7,2.6-14.5,1.7-16.2c-0.9-0.9-3.4-2.6-6.8-3.4
		c-3.4-1.7-20.4-10.2-23.8-11.1c-3.4-0.9-6-1.7-7.7,1.7c-2.6,3.4-8.5,11.1-11.1,13.6c-1.7,2.6-4.3,2.6-7.7,0.9
		c-3.4-1.7-14.5-5.1-28.1-17c-10.2-9.4-17.9-20.4-19.6-23.8s0-5.1,1.7-7.7c1.7-1.7,3.4-3.4,5.1-6c0.9-0.9,0.9-0.9,0.9-1.7
		c0.9-1.7,1.7-2.6,2.6-4.3c0.9-2.6,0.9-4.3,0-6s-7.7-18.7-10.2-25.5c-2.6-6.8-6-6-7.7-6c-2.6,0-4.3,0-6.8,0s-6,0.9-9.4,4.3
		C511.7,149.7,503.1,158.2,503.1,175.2z"/>
</g>
</svg>
