<?xml version="1.0" encoding="utf-8"?>
<!-- Generator: Adobe Illustrator 18.1.0, SVG Export Plug-In . SVG Version: 6.00 Build 0)  -->
<svg version="1.1" id="Layer_1" xmlns="http://www.w3.org/2000/svg" xmlns:xlink="http://www.w3.org/1999/xlink" x="0px" y="0px"
	 viewBox="0 0 36.2 48.2" enable-background="new 0 0 36.2 48.2" xml:space="preserve">
<g>
	<path fill="#FFFFFF" d="M11,10.2l5.8-5.8v27.3c0,0.7,0.6,1.3,1.3,1.3c0.7,0,1.3-0.6,1.3-1.3V4.4l5.8,5.8c0.5,0.5,1.3,0.5,1.8,0
		c0.5-0.5,0.5-1.3,0-1.8l-8-8c-0.1-0.1-0.3-0.2-0.4-0.3c-0.3-0.1-0.7-0.1-1,0c-0.2,0.1-0.3,0.2-0.4,0.3l-8,8C8.9,8.6,8.8,9,8.8,9.3
		c0,0.3,0.1,0.7,0.4,0.9C9.6,10.7,10.5,10.7,11,10.2z"/>
	<path fill="#FFFFFF" d="M23.7,12.8c-0.7,0-1.3,0.6-1.3,1.3c0,0.7,0.6,1.3,1.3,1.3h9.9v30.2h-31V15.4h9.9c0.7,0,1.3-0.6,1.3-1.3
		c0-0.7-0.6-1.3-1.3-1.3H0v35.4h36.2V12.8H23.7z"/>
</g>
</svg>
