<?xml version="1.0" encoding="utf-8"?>
<!-- Generator: Adobe Illustrator 18.1.0, SVG Export Plug-In . SVG Version: 6.00 Build 0)  -->
<svg version="1.1" id="Layer_1" xmlns="http://www.w3.org/2000/svg" xmlns:xlink="http://www.w3.org/1999/xlink" x="0px" y="0px"
	 viewBox="313.7 33.6 214.3 417" enable-background="new 313.7 33.6 214.3 417" xml:space="preserve">
<path fill="none" stroke="#1D1D1B" stroke-width="5.6693" stroke-miterlimit="10" d="M524.5,385.7c-1.4-5.1-44.2-43.5-44.2-43.5
	s4.8-76,10-130.8c5.4-58-21.6-99-25.3-106.3c-11.9-23.8-44.1-65.8-44.1-65.8s-32.1,42-44.1,65.8c-3.6,7.3-30.8,48.3-25.3,106.3
	c5.1,54.8,10,130.8,10,130.8s-42.9,38.6-44.2,43.5c-1.9,6.8,5.1,55.1,6.8,57.8c1.5,2.4,45.1-28.9,45.1-28.9s6.5-0.9,11.7,13.9
	c1,3.1,1.4,6.8,2.9,11.1c2.7,8,37.2,8,37.2,8s34.7,0,37.2-8c1.7-5.3,2.4-9.7,3.6-13.1c4.9-12.6,10.9-11.9,10.9-11.9
	s43.5,31.3,45.1,28.9C519.4,440.8,526.4,392.5,524.5,385.7z"/>
<circle fill="none" stroke="#1D1D1B" stroke-width="5.6693" stroke-miterlimit="10" cx="420.9" cy="186.4" r="30.1"/>
</svg>
