<?xml version="1.0" standalone="no"?>
<!DOCTYPE svg PUBLIC "-//W3C//DTD SVG 20010904//EN"
 "http://www.w3.org/TR/2001/REC-SVG-20010904/DTD/svg10.dtd">
<svg version="1.0" xmlns="http://www.w3.org/2000/svg"
 width="700.000000pt" height="700.000000pt" viewBox="0 0 700.000000 700.000000"
 preserveAspectRatio="xMidYMid meet">
<metadata>
Created by potrace 1.11, written by Peter Selinger 2001-2013
</metadata>
<g transform="translate(0.000000,700.000000) scale(0.100000,-0.100000)"
fill="#000000" stroke="none">
<path d="M3465 6928 c-15 -35 -61 -132 -102 -217 -40 -84 -73 -155 -73 -156 0
-2 -32 -70 -71 -152 -39 -81 -84 -175 -99 -208 -15 -33 -53 -114 -85 -180 -31
-66 -88 -185 -125 -265 -37 -80 -100 -212 -139 -294 -39 -82 -71 -150 -71
-151 0 -2 -31 -68 -167 -355 -33 -69 -74 -158 -93 -197 -23 -51 -39 -73 -51
-74 -11 -1 -22 -2 -26 -3 -5 -2 -35 -6 -68 -10 -33 -5 -69 -10 -80 -12 -10 -2
-37 -6 -60 -9 -22 -4 -101 -15 -175 -26 -74 -11 -148 -22 -165 -24 -36 -6
-240 -35 -275 -40 -14 -2 -45 -7 -70 -11 -25 -4 -56 -8 -70 -9 -35 -4 -241
-34 -266 -39 -12 -2 -45 -7 -75 -11 -30 -3 -61 -8 -69 -10 -8 -2 -37 -7 -65
-10 -27 -3 -61 -7 -75 -10 -14 -2 -41 -7 -60 -9 -52 -7 -461 -66 -490 -71 -14
-2 -43 -6 -65 -10 -23 -3 -50 -7 -60 -9 -11 -2 -47 -7 -80 -10 -101 -11 -101
-9 -27 -86 37 -37 204 -208 372 -380 168 -171 349 -357 404 -413 54 -56 238
-245 410 -421 531 -544 497 -506 490 -546 -3 -19 -7 -48 -10 -65 -8 -60 -17
-120 -30 -190 -2 -11 -6 -40 -9 -65 -3 -25 -8 -56 -11 -70 -2 -14 -6 -34 -8
-46 -2 -12 -7 -45 -11 -75 -4 -30 -8 -56 -10 -59 -2 -3 -6 -30 -10 -60 -3 -30
-13 -98 -22 -150 -8 -52 -16 -104 -18 -115 -6 -42 -17 -114 -36 -235 -11 -69
-22 -143 -25 -165 -4 -22 -8 -47 -9 -55 -2 -8 -8 -51 -15 -95 -7 -44 -14 -87
-15 -96 -2 -9 -6 -32 -9 -50 -2 -19 -30 -198 -61 -399 -69 -443 -75 -482 -75
-497 0 -8 20 0 50 17 28 17 53 30 55 30 3 0 39 20 81 45 41 25 78 45 80 45 2
0 59 31 127 69 67 37 163 90 212 116 50 26 95 51 100 55 6 4 84 48 175 97 91
50 181 99 200 110 30 17 255 141 405 223 28 15 111 61 185 102 74 41 164 91
200 110 36 19 81 44 100 55 19 11 65 36 102 57 l67 37 68 -37 c80 -43 318
-175 383 -211 25 -14 79 -44 120 -66 41 -22 85 -45 96 -53 12 -7 50 -28 85
-47 35 -19 91 -49 124 -67 33 -18 65 -36 70 -40 6 -4 55 -31 110 -60 55 -29
105 -56 110 -60 6 -4 80 -46 165 -92 193 -106 722 -398 773 -427 l39 -22 -7
48 c-8 62 -31 213 -40 263 -2 14 -7 45 -10 70 -3 25 -13 84 -20 131 -8 47 -22
130 -30 185 -8 54 -16 110 -19 124 -5 27 -22 140 -31 205 -3 22 -12 81 -20
130 -18 110 -52 326 -59 377 -3 21 -8 55 -12 75 -3 21 -9 63 -14 93 -6 30 -12
71 -14 90 -8 61 -16 114 -21 136 -3 12 -9 52 -15 90 -5 38 -12 80 -14 94 -3
14 -7 43 -10 66 -3 23 -17 112 -31 199 -25 152 -25 158 -8 178 26 29 131 137
502 517 181 184 368 376 417 427 248 255 659 675 731 749 81 81 82 83 55 88
-24 5 -109 18 -211 32 -19 2 -46 6 -60 9 -14 2 -64 9 -111 15 -84 11 -115 16
-156 24 -12 2 -45 7 -75 11 -30 3 -65 8 -79 10 -34 6 -112 18 -205 30 -23 3
-51 7 -64 10 -12 2 -55 9 -94 14 -86 12 -143 21 -177 27 -14 2 -47 7 -75 10
-27 3 -72 9 -100 14 -27 5 -72 12 -100 15 -27 3 -57 7 -65 10 -8 2 -40 6 -70
10 -30 3 -64 7 -75 9 -40 7 -120 20 -135 21 -8 0 -37 4 -65 9 -27 4 -66 10
-85 12 -19 3 -46 7 -60 9 -139 22 -275 42 -301 44 -10 0 -28 26 -44 64 -16 34
-64 136 -107 227 -44 91 -89 185 -100 210 -11 25 -49 105 -84 178 -35 74 -64
135 -64 137 0 1 -33 72 -74 156 -40 85 -85 179 -99 209 -14 30 -46 100 -72
155 -26 55 -62 132 -80 170 -18 39 -59 126 -92 195 -33 69 -72 152 -88 185
-15 33 -53 114 -84 180 -32 66 -70 148 -86 183 -16 34 -32 62 -36 62 -3 0 -19
-28 -34 -62z"/>
</g>
</svg>
